<?xml version="1.0" encoding="utf-8"?>
<!-- Generator: Adobe Illustrator 25.2.1, SVG Export Plug-In . SVG Version: 6.00 Build 0)  -->
<svg version="1.1" id="Camada_1" xmlns="http://www.w3.org/2000/svg" xmlns:xlink="http://www.w3.org/1999/xlink" x="0px" y="0px"
	 viewBox="0 0 14400 14400" style="enable-background:new 0 0 14400 14400;" xml:space="preserve">
<style type="text/css">
	.st0{fill:#FFD6A5;}
	.st1{fill:#FFEEE1;}
	.st2{fill:#E20000;}
	.st3{fill:#474A51;}
	.st4{fill:none;stroke:#000000;stroke-width:80;stroke-miterlimit:10;}
</style>
<g id="XMLID_1_">
	<g>
		<path class="st0" d="M13197.81,11269.42c1028.74,293.93,907.71,1002.81,890.42,1046.03
			c-60.51,752.11-976.87,734.82-1037.39,743.46c-1997.33,112.38-2325.48-242.06-2334.13-216.12
			c-267.99-1218.93,475.83-2042.36,475.83-2042.36C12403.2,10762.61,13189.52,11261.14,13197.81,11269.42z"/>
		<path class="st0" d="M11984.64,5324.96c-78.53,84.65-172.9,203.88-286.72,372.81l-265.83,315.54c0,0-686.91-149.48-806.14-306.17
			c-257.55-355.16-568.76-668.9-922.12-928.97c0,0,567.68-680.07,775.16-567.32c25.93-4.32,791.01-639.72,1076.29-497.08
			c4.68,2.16,49.71-1.8,121.03-6.12c-172.9,244.58,0,204.96,0,266.91c138.32,79.24,259.35,93.65,308.34,73.48
			c619.19-400.55,919.24,162.81,919.24,162.81c0,60.51,181.54,316.62-570.56,895.47
			C12295.13,5121.81,12201.12,5090.83,11984.64,5324.96z"/>
		<path class="st1" d="M12903.88,4210.85c0,0-300.05-563.36-919.24-162.81c-48.99,20.17-170.02,5.76-308.34-73.48
			c0-61.96-172.9-22.33,0-266.91C12003.73,3687.47,12882.63,3660.1,12903.88,4210.85z"/>
		<path class="st0" d="M11432.08,6013.32l-372.09,441.97c-119.23-265.11-265.11-515.45-434.05-748.15
			C10745.17,5863.83,11432.08,6013.32,11432.08,6013.32z"/>
		<path class="st2" d="M8217.98,5174.4c-171.82-181.18,302.93-302.21,303.29-310.86c225.13-103.74,405.95,43.22,405.95,51.87
			c250.7-103.74,302.57,0,371.73,34.58c157.77,19.81,205.32-82.13,217.2-172.9c8.64-65.56-1.44-125.35-2.52-131.11
			c64.84,42.14,128.23,86.09,190.19,132.2c353.36,260.07,664.58,573.81,922.12,928.97c168.94,232.69,314.82,483.03,434.05,748.15
			c239.18,530.58,372.09,1119.52,372.09,1739.43c0,299.33-30.98,591.1-90.05,872.78l-11.53-2.52
			c-38.18,135.08-95.09,86.45-95.09,86.45c95.09-86.45,69.16-1365.9,43.22-1452.34c-41.42,0-114.55-78.16-179.02-157.77
			c-56.91-70.24-107.34-141.92-123.55-162.09c-127.51-354.44-233.41-449.54-302.57-492.76c-77.8,112.38,242.06,561.92,259.35,584.97
			c39.98,27.74,71.68,55.83,96.54,84.29c204.24,235.57-73.48,484.12-96.54,515.09c-397.67,302.57-423.6-233.41-449.54-319.86
			c27.02-386.14-207.48-925.01-242.06-994.16c-207.48-354.44-17.29-328.51,43.22-380.38c198.83-60.51,34.58-328.51,0-406.31
			c-267.99-293.93-242.06-34.58-250.7,0c25.93,121.03-51.87,86.45-51.87,86.45s-544.63-587.85-596.5-587.85
			c-95.09,25.93,34.58,449.54,25.93,484.11c-95.09,77.8-242.06,60.51-250.7,0c102.66-183.34-17.29-302.57-51.87-320.58
			c-432.25-441.61-1106.55-42.5-1141.13-33.86c-389.02,181.54-242.06-423.6-224.77-492.04
			C7916.49,5098.4,8201.05,5168.28,8217.98,5174.4z"/>
		<path class="st3" d="M11330.51,9064.97l11.53,2.52c-115.63,552.91-338.59,1065.85-646.57,1516.46
			c-313.38,458.9-714.65,853.33-1179.67,1158.06c0,0,0,0-0.36,0.36c-667.46,438.37-1466.03,693.39-2324.4,693.39
			c-657.01,0-1278.73-149.48-1833.8-416.04c-32.78-15.49-64.84-31.7-97.26-47.91c-1066.57-546.43-1871.26-1531.59-2176.36-2717.02
			c-87.17-338.95-133.64-694.11-133.64-1060.08c0-137.24,6.48-273.4,19.45-407.39c16.57-174.34,43.58-345.8,81.05-513.29
			c0,0,76,53.31,136.52-85.01c43.22,43.22,267.99,657.01,414.96,665.66c0,0-155.61,993.8,181.54,1305.38
			c43.22,112.38,233.41,233.41,423.6,553.27c34.58,43.22,406.31,746.7,440.89,926.45c51.87,67.72,458.18,958.14,1184.35,1252.07
			c17.29-8.65,34.58-60.51-69.16-138.32c-51.87-69.16-510.05-276.64-492.76-700.24c17.29-77.8-25.93-899.07-25.93-899.07
			s86.45-146.96,242.06-280.96c17.29-56.19,0-635.4,181.54-946.62c17.29-77.8,25.93-518.69-414.96-631.08
			c-43.22,8.64-380.38,129.67-596.5-389.02c-34.58-60.51-397.67-579.21-657.01-544.63c-43.22,34.58-250.7,17.29-311.22,337.15
			c-43.22-8.65-302.57-172.9-276.64-432.25c25.93-103.74,121.03-596.5,121.03-596.5s5.04-224.77-122.83,43.22
			c-15.49,43.22-76,138.32-76,138.32s-115.99,182.62-69.16-95.09c7.92-11.89,44.31-136.16,100.5-264.75
			c64.84-148.04,156.33-301.85,262.59-297.17c51.87,34.58,77.8,123.19,34.58,260.43c8.64,24.85,95.09,119.59,172.9-260.43
			c25.93-25.94,189.83-961.03,1850.01-1512.86c43.22-8.65,147.32-129.67,159.93-354.44c-38.9-25.93,12.97-95.09-220.45,0
			c-8.65,17.29-73.84,17.65-37.1-59.79v-0.36c154.53-63.04,313.38-117.43,476.19-162.09c184.79-51.15,374.61-89.69,568.76-114.91
			c12.25-1.8,24.85-3.6,37.82-4.68c-21.25,10.81-443.41,230.89-215.76,281.32c43.22,8.65,319.86-221.17,596.5-140.84
			c60.51,28.46,440.53,48.63,561.92-151.65c360.2,35.3,707.08,115.99,1035.23,236.29c25.57,9.37,51.51,19.09,77.08,29.18
			c0,0,106.62,191.27-66.28,217.2c-25.93,8.65-267.99,60.51-43.22,224.77c25.93,0,198.83-77.8,328.51,69.16
			c34.58,17.29,221.89,51.87,50.43-112.38c-7.2-25.93-109.5-155.61,71.32-103.74c33.86,34.58,42.5,190.19,180.82,190.19
			c43.22,43.22,165.69,162.09,216.12,41.42l52.95,10.45c-11.89,90.77-59.43,192.71-217.2,172.9
			c-69.16-34.58-121.03-138.32-371.73-34.58c0-8.65-180.82-155.61-405.95-51.87c-0.36,8.65-475.11,129.67-303.29,310.86
			c-16.93-6.12-301.49-76-475.11-68.08c-17.29,68.44-164.25,673.58,224.77,492.04c34.58-8.64,708.88-407.75,1141.13,33.86
			c34.58,18.01,154.53,137.24,51.87,320.58c8.64,60.51,155.61,77.8,250.7,0c8.64-34.58-121.03-458.18-25.93-484.11
			c51.87,0,596.5,587.85,596.5,587.85s77.8,34.58,51.87-86.45c8.64-34.58-17.29-293.93,250.7,0c34.58,77.8,198.83,345.8,0,406.31
			c-60.51,51.87-250.7,25.93-43.22,380.38c34.58,69.16,269.07,608.03,242.06,994.16c25.93,86.45,51.87,622.43,449.54,319.86
			c23.05-30.98,300.77-279.52,96.54-515.09l70.24-14.41c64.48,79.61,137.6,157.77,179.02,157.77
			c25.93,86.45,51.87,1365.9-43.22,1452.34C11235.41,9151.42,11292.33,9200.05,11330.51,9064.97z M10388.21,8978.52
			c103.74-77.8,414.96-285.28,0-959.58c-25.94-25.93-291.77-531.66-175.06-927.17c12.97-58.35-32.42-622.43-427.92-557.6
			c-32.42,0-311.22,188.03-479.79-175.06c-58.35-51.87-726.17-706.72-1024.42-648.37c-32.42,6.48-253.58-25.93-470.43,77.8
			c0,0-1464.59,933.65-610.55,1945.1c50.07,77.8,205.68,700.24,983.72,311.22c129.67,51.87,622.43,700.24,155.61,1504.21
			c-51.87,155.61-1089.26,2178.52-51.87,1530.15c103.74-25.93,1218.93-778.04,1218.93-778.04S9765.78,9497.21,10388.21,8978.52z
			 M9947.32,10318.48c0,0-311.22,0-492.76,285.28c-43.22,25.93-354.44,216.12-345.8,354.44
			C9160.63,10984.14,9523.72,10854.46,9947.32,10318.48z"/>
		<path class="st3" d="M11099.62,7541.3l-70.24,14.41c-24.85-28.46-56.55-56.55-96.54-84.29
			c-17.29-23.05-337.15-472.59-259.35-584.97c69.16,43.22,175.06,138.32,302.57,492.76
			C10992.27,7399.38,11042.7,7471.06,11099.62,7541.3z"/>
		<path class="st0" d="M10993.36,10811.24c67.72-5.4,134-9,199.19-10.81c0,0-743.82,823.43-475.83,2042.36
			c-138.32,293.93-1469.63,224.77-1478.28,242.06c16.93-791.37,269.43-1325.91,277-1342.48c0.36-0.36,0.36-0.36,0.36-0.36
			c465.02-304.73,866.29-699.16,1179.67-1158.06C10596.77,10735.24,10976.07,10793.95,10993.36,10811.24z"/>
		<path class="st2" d="M10388.21,8018.93c414.96,674.3,103.74,881.78,0,959.58c-622.43,518.69-881.78,1322.67-881.78,1322.67
			s-1115.19,752.11-1218.93,778.04c-1037.39,648.37,0-1374.54,51.87-1530.15c466.83-803.98-25.93-1452.35-155.61-1504.21
			c-778.04,389.02-933.65-233.41-983.72-311.22c-854.04-1011.45,610.55-1945.1,610.55-1945.1
			c216.84-103.74,438.01-71.32,470.43-77.8c298.25-58.35,966.07,596.5,1024.42,648.37c168.58,363.09,447.37,175.06,479.79,175.06
			c395.5-64.84,440.89,499.24,427.92,557.6C10096.45,7487.27,10362.28,7993,10388.21,8018.93z"/>
		<path class="st2" d="M9454.56,10603.76c181.54-285.28,492.76-285.28,492.76-285.28c-423.6,535.98-786.69,665.66-838.56,639.72
			C9100.12,10819.89,9411.34,10629.7,9454.56,10603.76z"/>
		<path class="st3" d="M9513.63,4645.98c1.08,5.76,11.17,65.56,2.52,131.11l-52.95-10.45c-8.64-6.84-103.74-127.87-103.74-127.87
			s6.84-80.33,47.55-60.51c0.36,0,0.72,0.36,1.08,0.72C9443.75,4600.59,9478.7,4622.93,9513.63,4645.98z"/>
		<path class="st2" d="M9359.47,4638.77c0,0,95.09,121.03,103.74,127.87c-50.43,120.67-172.9,1.8-216.12-41.42
			c-138.32,0-146.96-155.61-180.82-190.19c-180.82-51.87-78.52,77.8-71.32,103.74c171.46,164.25-15.85,129.67-50.43,112.38
			C8814.84,4604.2,8641.94,4682,8616,4682c-224.77-164.25,17.29-216.12,43.22-224.77c172.9-25.93,66.28-217.2,66.28-217.2
			c238.46,92.21,466.47,205.68,681.51,338.23C9366.31,4558.45,9359.47,4638.77,9359.47,4638.77z"/>
		<path class="st0" d="M9515.44,11742.37c-7.56,16.57-260.07,551.11-277,1342.48c-224.77,121.03-1184.35,198.83-1210.29,181.54
			c-751.39,39.98-1589.58-181.18-1964.2-296.81c-4.32-1.44-9-2.88-13.33-4.32c-284.92-104.46-693.39-945.54-693.39-945.54
			c555.08,266.55,1176.79,416.04,1833.8,416.04C8049.4,12435.76,8847.98,12180.74,9515.44,11742.37z"/>
		<path class="st0" d="M8994.22,1703.83c3.24,19.09-2.52,494.56-47.55,1037.39c-1484.4,972.55-2014.26-256.47-2014.26-256.47
			c72.76-165.69,145.16-333.19,168.58-391.9c0-6.48,123.19-479.79,667.82-862.33C7768.8,1224.04,8605.2,809.08,8994.22,1703.83z"/>
		<path class="st0" d="M8946.67,2741.22c-46.11,561.2-134.36,1194.8-298.25,1469.63c-328.15-120.31-675.02-200.99-1035.23-236.29
			c-138.68-13.69-279.52-20.89-422.16-20.89c-176.14,0-349.4,10.81-519.77,31.7c0,0-0.36,0-0.72,0.36
			c-12.97,1.08-25.57,2.88-37.82,4.68l-5.04-36.74c0,0-25.93-810.46,129.67-1069.81c0,0,87.53-198.11,175.06-399.11
			C6932.41,2484.75,7462.27,3713.77,8946.67,2741.22z"/>
		<path class="st2" d="M7191.04,3953.67c142.64,0,283.48,7.2,422.16,20.89c-121.39,200.27-501.4,180.1-561.92,151.65
			c-276.64-80.33-553.27,149.48-596.5,140.84c-227.65-50.43,194.51-270.51,215.76-281.32c0.36-0.36,0.72-0.36,0.72-0.36
			C6841.64,3964.47,7014.9,3953.67,7191.04,3953.67z"/>
		<path class="st0" d="M6013.53,3877.66c16.93,70.24,33.86,146.24,50.43,227.65c-162.81,44.67-321.66,99.06-476.19,162.09v0.36
			c-47.19,18.73-94.01,38.9-140.12,59.79l-9-20.53C5615.86,4225.98,5808.21,4090.18,6013.53,3877.66z"/>
		<path class="st0" d="M6050.63,12965.26c-104.82-32.42-170.38-56.19-183.7-61.96c-190.55-124.27-463.22-190.91-738.42-225.85
			c-115.99-415.68,131.47-705.64,131.47-705.64c32.42,16.21,64.48,32.42,97.26,47.91
			C5357.23,12019.73,5765.71,12860.8,6050.63,12965.26z"/>
		<path class="st2" d="M5763.19,11753.54c103.74,77.8,86.45,129.67,69.16,138.32c-726.17-293.93-1132.48-1184.35-1184.35-1252.07
			c-34.58-179.74-406.31-883.22-440.89-926.45c-190.19-319.86-380.38-440.89-423.6-553.27
			c-337.15-311.58-181.54-1305.38-181.54-1305.38c-146.96-8.65-371.73-622.43-414.96-665.66
			c-60.51,138.32-136.52,85.01-136.52,85.01c61.59-279.16,150.93-548.23,265.11-803.62l49.71,21.61
			c-56.19,128.59-92.57,252.86-100.5,264.75c-46.83,277.72,69.16,95.09,69.16,95.09s60.51-95.09,76-138.32
			c127.87-267.99,122.83-43.22,122.83-43.22s-95.09,492.76-121.03,596.5c-25.93,259.35,233.41,423.6,276.64,432.25
			c60.51-319.86,267.99-302.57,311.22-337.15c259.35-34.58,622.43,484.12,657.01,544.63c216.12,518.69,553.27,397.67,596.5,389.02
			c440.89,112.38,432.25,553.27,414.96,631.08c-181.54,311.22-164.25,890.43-181.54,946.62c-155.61,134-242.06,280.96-242.06,280.96
			s43.22,821.27,25.93,899.07C5253.14,11476.9,5711.32,11684.38,5763.19,11753.54z"/>
		<path class="st0" d="M5668.09,3039.47c38.54,30.98,199.55,239.18,345.44,838.2c-205.32,212.52-397.67,348.32-574.89,429.36
			c-754.27,344.36-1229.38-312.3-1243.79-332.11c0-0.36,0-0.36,0-0.36c-10.09-412.43,14.77-809.38,133.28-935.09
			c0,0,0.36-0.36,1.08-0.72c3.24-1.44,10.09-7.56,20.53-17.65c0.72-0.72,1.44-1.44,2.52-2.16
			c124.99-103.02,714.65-541.75,1221.09-98.7l0.36,0.36C5605.42,2955.9,5636.75,2995.52,5668.09,3039.47z"/>
		<path class="st2" d="M5624.87,4327.56c233.41-95.09,181.54-25.93,220.45,0c-12.61,224.77-116.71,345.8-159.93,354.44
			C4025.2,5233.83,3861.3,6168.92,3835.37,6194.86c-77.8,380.02-164.25,285.28-172.9,260.43c43.22-137.24,17.29-225.85-34.58-260.43
			c-106.26-4.68-197.75,149.12-262.59,297.17l-49.71-21.61c39.26-88.61,81.77-175.78,127.15-261.15
			c219-413.15,504.65-785.25,842.16-1102.95c180.1-170.02,375.69-324.18,583.53-459.98c-4.32,14.77-68.8,247.46,439.09-252.14
			l0.36-0.36c46.11-23.05,92.57-45.03,139.76-66.28c46.11-20.89,92.93-41.06,140.12-59.79
			C5551.02,4345.21,5616.22,4344.85,5624.87,4327.56z"/>
		<path class="st0" d="M4868.44,4646.34c-207.84,135.8-403.43,289.96-583.53,459.98c0,0-76.36-579.93-90.05-1131.4
			c14.41,19.81,489.52,676.46,1243.79,332.11l9,20.53c-47.19,21.25-93.65,43.22-139.76,66.28l-0.36,0.36
			C5155.88,4469.48,5009.28,4553.41,4868.44,4646.34z"/>
		<path class="st1" d="M5573.36,2920.24c-506.45-443.05-1096.1-4.32-1221.09,98.7C4476.17,2898.27,5034.13,2314.01,5573.36,2920.24z
			"/>
		<path class="st0" d="M5259.98,11971.82c0,0-247.46,289.96-131.47,705.64c-510.77-64.84-1031.63-19.09-1059.72-24.85
			c-1763.56-631.08-2063.97-3252.65-2063.97-3252.65c-16.21-158.85-26.66-304.73-33.14-438.37c0,0,345.8,388.66,1078.81,293.57
			l33.14-0.36C3388.72,10440.23,4193.41,11425.39,5259.98,11971.82z"/>
		<path class="st3" d="M4868.44,4646.34c140.84-92.93,287.44-176.86,439.09-252.14C4799.64,4893.8,4864.11,4661.11,4868.44,4646.34z
			"/>
		<path class="st0" d="M3032.11,6172.17C2862.46,6579.56,1775,6787.4,1775,6787.4c-189.47-221.17-434.77-511.49-662.78-782.36
			c31.7,3.96,1642.17,201.35,1100.42-1120.6c442.33,357.32,861.97,718.61,861.97,722.57c103.74,291.77,368.13,602.26,368.13,602.26
			c-45.39,85.37-87.89,172.54-127.15,261.15c-114.18,255.39-203.52,524.46-265.11,803.62c-37.46,167.5-64.48,338.95-81.05,513.29
			l-19.45-1.8c-667.1,125.35-834.95-231.25-834.95-231.25c48.27-277.36-3.24-382.9-12.97-397.67
			c-11.53-5.76-98.7-104.1-228.01-253.94c0,0,1160.58-154.53,1180.39-725.09L3032.11,6172.17z"/>
		<path class="st0" d="M3083.62,9254.8l-33.14,0.36c-733.02,95.09-1078.81-293.57-1078.81-293.57
			c-34.94-723.65,54.75-1081.69,65.56-1098.26c38.18-121.03,63.04-223.33,77.8-309.06c0,0,167.86,356.6,834.95,231.25l19.45,1.8
			c-12.97,134-19.45,270.15-19.45,407.39C2949.99,8560.68,2996.45,8915.84,3083.62,9254.8z"/>
		<path class="st0" d="M3032.11,6172.17l22.33,5.4c-19.81,570.56-1180.39,725.09-1180.39,725.09
			c-30.62-35.66-64.12-74.2-99.06-115.27C1775,6787.4,2862.46,6579.56,3032.11,6172.17z"/>
		<path class="st0" d="M2212.65,4884.43c541.75,1321.95-1068.73,1124.56-1100.42,1120.6c-0.36,0-0.36,0-0.36,0
			c-353.72-419.64-667.1-793.53-669.62-793.53c-369.57-544.63,90.77-946.62,90.77-953.1c39.26-60.15,81.77-105.18,126.07-137.6
			c0,0,0.36,0,1.08-0.36c21.25-4.68,300.77-65.2,408.83,21.97c25.93,29.54,162.09,120.31,266.91,87.89h0.36
			c25.21,18.73,39.62,30.26,39.62,28.1C1570.4,4377.27,1897.11,4629.77,2212.65,4884.43z"/>
		<path class="st1" d="M1335.91,4230.3c-104.82,32.42-240.98-58.35-266.91-87.89c-108.06-87.17-387.58-26.66-408.83-21.97
			C911.95,3937.82,1226.41,4149.98,1335.91,4230.3z"/>
	</g>
	<g>
		<path class="st4" d="M9408.09,4578.98c35.66,21.61,70.6,43.95,105.54,67c64.84,42.14,128.23,86.09,190.19,132.2
			c353.36,260.07,664.58,573.81,922.12,928.97c168.94,232.69,314.82,483.03,434.05,748.15
			c239.18,530.58,372.09,1119.52,372.09,1739.43c0,299.33-30.98,591.1-90.05,872.78c-115.63,552.91-338.59,1065.85-646.57,1516.46
			c-313.38,458.9-714.65,853.33-1179.67,1158.06"/>
		<path class="st4" d="M6671.26,3985.36c170.38-20.89,343.64-31.7,519.77-31.7c142.64,0,283.48,7.2,422.16,20.89
			c360.2,35.3,707.08,115.99,1035.23,236.29c25.57,9.37,51.51,19.09,77.08,29.18c238.46,92.21,466.47,205.68,681.51,338.23"/>
		<path class="st4" d="M5587.77,4267.4c154.53-63.04,313.38-117.43,476.19-162.09c184.79-51.15,374.61-89.69,568.76-114.91
			c12.25-1.8,24.85-3.6,37.82-4.68"/>
		<path class="st4" d="M5307.89,4393.84c46.11-23.05,92.57-45.03,139.76-66.28c46.11-20.89,92.93-41.06,140.12-59.79"/>
		<path class="st4" d="M9515.44,11742.37c-667.46,438.37-1466.03,693.39-2324.4,693.39c-657.01,0-1278.73-149.48-1833.8-416.04
			c-32.78-15.49-64.84-31.7-97.26-47.91c-1066.57-546.43-1871.26-1531.59-2176.36-2717.02
			c-87.17-338.95-133.64-694.11-133.64-1060.08c0-137.24,6.48-273.4,19.45-407.39c16.57-174.34,43.58-345.8,81.05-513.29
			c61.59-279.16,150.93-548.23,265.11-803.62c39.26-88.61,81.77-175.78,127.15-261.15c219-413.15,504.65-785.25,842.16-1102.95
			c180.1-170.02,375.69-324.18,583.53-459.98c140.84-92.93,287.44-176.86,439.09-252.14"/>
		<path class="st4" d="M6627.68,3953.67c0,0-25.93-810.46,129.67-1069.81c0,0,87.53-198.11,175.06-399.11
			c72.76-165.69,145.16-333.19,168.58-391.9c0-6.48,123.19-479.79,667.82-862.33c0-6.48,836.4-421.44,1225.42,473.31
			c3.24,19.09-2.52,494.56-47.55,1037.39c-46.11,561.2-134.36,1194.8-298.25,1469.63"/>
		<path class="st4" d="M6063.96,12969.59c374.61,115.63,1212.81,336.79,1964.2,296.81c25.93,17.29,985.52-60.51,1210.29-181.54
			c8.64-17.29,1339.96,51.87,1478.28-242.06c8.65-25.93,336.79,328.51,2334.13,216.12c60.51-8.64,976.88,8.64,1037.39-743.46
			c17.29-43.22,138.32-752.11-890.42-1046.03c-8.29-8.29-794.61-506.81-2005.26-468.99c-65.2,1.8-131.48,5.4-199.19,10.81
			c-17.29-17.29-396.59-76-297.89-227.29"/>
		<path class="st4" d="M1112.22,6005.03c228.01,270.87,473.31,561.2,662.78,782.36c34.94,41.06,68.44,79.6,99.06,115.27
			c129.31,149.85,216.48,248.18,228.01,253.94c9.73,14.77,61.23,120.31,12.97,397.67c-14.77,85.73-39.62,188.03-77.8,309.06
			c-10.81,16.57-100.5,374.61-65.56,1098.26c6.48,133.64,16.93,279.52,33.14,438.37c0,0,300.41,2621.57,2063.97,3252.65
			c28.1,5.76,548.95-39.98,1059.72,24.85c275.2,34.94,547.87,101.58,738.42,225.85c13.33,5.76,78.88,29.54,183.7,61.96"/>
		<path class="st4" d="M659.09,4120.8c-44.31,32.42-86.81,77.44-126.07,137.6c0,6.48-460.34,408.47-90.77,953.1
			c2.52,0,315.9,373.89,669.62,793.53"/>
		<path class="st4" d="M1335.91,4230.3c-109.5-80.33-423.96-292.49-675.74-109.86"/>
		<path class="st4" d="M3442.75,6209.27c0,0-264.39-310.5-368.13-602.26c0-3.96-419.64-365.25-861.97-722.57
			c-315.54-254.66-642.24-507.17-836.76-626.04c0,2.16-14.41-9.37-39.62-28.1"/>
		<path class="st4" d="M5573.72,2920.6c31.7,35.3,63.04,74.92,94.37,118.87c38.54,30.98,199.55,239.18,345.44,838.2
			c16.93,70.24,33.86,146.24,50.43,227.65"/>
		<path class="st4" d="M4352.26,3018.94c123.91-120.67,681.87-704.92,1221.09-98.7"/>
		<path class="st4" d="M4329.21,3038.75c3.24-1.44,10.09-7.56,20.53-17.65"/>
		<path class="st4" d="M4194.85,3974.56c-10.09-412.43,14.77-809.38,133.28-935.09"/>
		<path class="st4" d="M4284.91,5106.32c0,0-76.36-579.93-90.05-1131.4"/>
		<path class="st4" d="M9703.82,4778.17c0,0,567.68-680.07,775.16-567.32c25.93-4.32,791.01-639.72,1076.29-497.08
			c4.68,2.16,49.71-1.8,121.03-6.12c327.43-20.17,1206.33-47.55,1227.58,503.21c0,60.51,181.54,316.62-570.56,895.47
			c-38.18,15.49-132.2-15.49-348.68,218.64c-78.53,84.65-172.9,203.88-286.72,372.81l-265.83,315.54l-372.09,441.97"/>
		<path class="st4" d="M7810.59,5788.55c0,0-1464.59,933.65-610.55,1945.1c50.07,77.8,205.68,700.24,983.72,311.22
			c129.67,51.87,622.43,700.24,155.61,1504.21c-51.87,155.61-1089.26,2178.52-51.87,1530.15
			c103.74-25.93,1218.93-778.04,1218.93-778.04s259.35-803.98,881.78-1322.67c103.74-77.8,414.96-285.28,0-959.58
			c-25.94-25.93-291.77-531.66-175.06-927.17c12.97-58.35-32.42-622.43-427.92-557.6c-32.42,0-311.22,188.03-479.79-175.06
			c-58.35-51.87-726.17-706.72-1024.42-648.37C8248.6,5717.23,8027.43,5684.81,7810.59,5788.55z"/>
		<path class="st4" d="M6671.26,3985.36c0,0-0.36,0-0.72,0.36c-21.25,10.81-443.41,230.89-215.76,281.32
			c43.22,8.65,319.86-221.17,596.5-140.84c60.51,28.46,440.53,48.63,561.92-151.65"/>
		<path class="st4" d="M8725.51,4240.03c0,0,106.62,191.27-66.28,217.2c-25.93,8.65-267.99,60.51-43.22,224.77
			c25.93,0,198.83-77.8,328.51,69.16c34.58,17.29,221.89,51.87,50.43-112.38c-7.2-25.93-109.5-155.61,71.32-103.74
			c33.86,34.58,42.5,190.19,180.82,190.19c43.22,43.22,165.69,162.09,216.12,41.42c-8.64-6.84-103.74-127.87-103.74-127.87
			s6.84-80.33,47.55-60.51c0.36,0,0.72,0.36,1.08,0.72c1.08,0.36,2.52,1.08,3.6,1.8"/>
		<path class="st4" d="M8218.7,5174.76h-0.36c0-0.36,0-0.36-0.36-0.36c-16.93-6.12-301.49-76-475.11-68.08
			c-17.29,68.44-164.25,673.58,224.77,492.04c34.58-8.64,708.88-407.75,1141.13,33.86c34.58,18.01,154.53,137.24,51.87,320.58
			c8.64,60.51,155.61,77.8,250.7,0c8.64-34.58-121.03-458.18-25.93-484.11c51.87,0,596.5,587.85,596.5,587.85
			s77.8,34.58,51.87-86.45c8.64-34.58-17.29-293.93,250.7,0c34.58,77.8,198.83,345.8,0,406.31
			c-60.51,51.87-250.7,25.93-43.22,380.38c34.58,69.16,269.07,608.03,242.06,994.16c25.93,86.45,51.87,622.43,449.54,319.86
			c23.05-30.98,300.77-279.52,96.54-515.09c-24.85-28.46-56.55-56.55-96.54-84.29c-17.29-23.05-337.15-472.59-259.35-584.97
			c69.16,43.22,175.06,138.32,302.57,492.76c16.21,20.17,66.64,91.85,123.55,162.09c64.48,79.61,137.6,157.77,179.02,157.77
			c25.93,86.45,51.87,1365.9-43.22,1452.34c0,0,56.91,48.63,95.09-86.45"/>
		<path class="st4" d="M9513.63,4645.62c0,0,0,0,0,0.36c1.08,5.76,11.17,65.56,2.52,131.11c-11.89,90.77-59.43,192.71-217.2,172.9
			c-69.16-34.58-121.03-138.32-371.73-34.58c0-8.65-180.82-155.61-405.95-51.87c-0.36,8.65-475.11,129.67-303.29,310.86"/>
		<path class="st4" d="M9947.32,10318.48c0,0-311.22,0-492.76,285.28c-43.22,25.93-354.44,216.12-345.8,354.44
			C9160.63,10984.14,9523.72,10854.46,9947.32,10318.48z"/>
		<path class="st4" d="M4868.8,4645.62c0,0,0,0.36-0.36,0.72c-4.32,14.77-68.8,247.46,439.09-252.14l0.36-0.36"/>
		<path class="st4" d="M3050.48,7274.03c0,0,76,53.31,136.52-85.01c43.22,43.22,267.99,657.01,414.96,665.66
			c0,0-155.61,993.8,181.54,1305.38c43.22,112.38,233.41,233.41,423.6,553.27c34.58,43.22,406.31,746.7,440.89,926.45
			c51.87,67.72,458.18,958.14,1184.35,1252.07c17.29-8.65,34.58-60.51-69.16-138.32c-51.87-69.16-510.05-276.64-492.76-700.24
			c17.29-77.8-25.93-899.07-25.93-899.07s86.45-146.96,242.06-280.96c17.29-56.19,0-635.4,181.54-946.62
			c17.29-77.8,25.93-518.69-414.96-631.08c-43.22,8.64-380.38,129.67-596.5-389.02c-34.58-60.51-397.67-579.21-657.01-544.63
			c-43.22,34.58-250.7,17.29-311.22,337.15c-43.22-8.65-302.57-172.9-276.64-432.25c25.93-103.74,121.03-596.5,121.03-596.5
			s5.04-224.77-122.83,43.22c-15.49,43.22-76,138.32-76,138.32s-115.99,182.62-69.16-95.09c7.92-11.89,44.31-136.16,100.5-264.75
			c64.84-148.04,156.33-301.85,262.59-297.17c51.87,34.58,77.8,123.19,34.58,260.43c8.64,24.85,95.09,119.59,172.9-260.43
			c25.93-25.94,189.83-961.03,1850.01-1512.86c43.22-8.65,147.32-129.67,159.93-354.44c-38.9-25.93,12.97-95.09-220.45,0
			c-8.65,17.29-73.84,17.65-37.1-59.79v-0.36"/>
		<path class="st4" d="M11192.55,10800.43c0,0-743.82,823.43-475.83,2042.36"/>
		<path class="st4" d="M9515.8,11742.01c0,0,0,0-0.36,0.36c-7.56,16.57-260.07,551.11-277,1342.48"/>
		<path class="st4" d="M5357.23,12019.73c0,0,408.47,841.08,693.39,945.54c4.32,1.44,9.01,2.88,13.33,4.32"/>
		<path class="st4" d="M5259.98,11971.82c0,0-247.46,289.96-131.47,705.64"/>
		<path class="st4" d="M1971.67,8961.59c0,0,345.8,388.66,1078.81,293.57"/>
		<path class="st4" d="M10777.23,4267.4c0,0-438.37,1000.29,1207.41,1057.56"/>
		<path class="st4" d="M12903.88,4210.85c0,0-300.05-563.36-919.24-162.81c-48.99,20.17-170.02,5.76-308.34-73.48
			c0-61.96-172.9-22.33,0-266.91"/>
		<path class="st4" d="M6932.41,2484.75c0,0,529.86,1229.02,2014.26,256.47"/>
		<path class="st4" d="M4194.85,3974.56c0,0,0,0,0,0.36c14.41,19.81,489.52,676.46,1243.79,332.11
			c177.22-81.05,369.57-216.84,574.89-429.36"/>
		<path class="st4" d="M1111.86,6005.03c0,0,0,0,0.36,0c31.7,3.96,1642.17,201.35,1100.42-1120.6"/>
		<path class="st4" d="M1775,6787.4c0,0,1087.46-207.84,1257.11-615.23c20.53-48.63,27.74-100.14,18.37-154.53"/>
		<path class="st4" d="M1874.06,6902.66c0,0,1160.58-154.53,1180.39-725.09"/>
		<path class="st4" d="M2115.03,7554.27c0,0,167.86,356.6,834.95,231.25"/>
		<path class="st4" d="M11432.08,6013.32c0,0-686.91-149.48-806.14-306.17"/>
		<path class="st4" d="M4328.13,3039.47c0,0,0.36-0.36,1.08-0.72c2.52-2.52,9.37-8.65,20.53-17.65c0.72-0.72,1.44-1.44,2.52-2.16
			c124.99-103.02,714.65-541.75,1221.09-98.7l0.36,0.36"/>
		<path class="st4" d="M659.09,4120.8c0,0,0.36,0,1.08-0.36c21.25-4.68,300.77-65.2,408.83,21.97
			c25.93,29.54,162.09,120.31,266.91,87.89h0.36"/>
	</g>
</g>
</svg>
